# xmcd CD database file
#
# Track frame offsets:
#	182
#	20587
#	39530
#	58817
#	80342
#	101630
#	120795
#	140615
#	159307
#	182900
#
# Disc length: 2718 seconds
#
# Revision: 2
# Processed by: cddbd v1.5.1PL2 Copyright (c) Steve Scherf et al.
# Submitted via: CDex 1.51
#
DISCID=7d0a9c0a
DTITLE=Vernice - Quando Tramonta Il Sole
DYEAR=1994
DGENRE=Pop
TTITLE0=Quando Tramonta Il Sole
TTITLE1=Hey Grande Uomo
TTITLE2=Questa Sera
TTITLE3=E' La Solita Storia
TTITLE4=Giro Tondo
TTITLE5=I Love You
TTITLE6=Figlia Mia
TTITLE7=Teddy
TTITLE8=Sù E Giù (Digital Live)
TTITLE9=La Voglia Che Hai
EXTD=YEAR: 1994
EXTT0=
EXTT1=
EXTT2=
EXTT3=
EXTT4=
EXTT5=
EXTT6=
EXTT7=
EXTT8=
EXTT9=
PLAYORDER=
